<svg width="1051" height="1908" viewBox="0 0 1051 1908" fill="none" xmlns="http://www.w3.org/2000/svg">
<mask id="mask0_2_3" style="mask-type:alpha" maskUnits="userSpaceOnUse" x="0" y="0" width="1051" height="1908">
<path d="M543.2 22.3999C542.8 45.1999 534.4 85.0666 523.867 113.733C521.733 119.467 520 124.8 520 125.6C520 126.933 513.467 143.2 506.4 159.333C499.6 174.8 484 206.533 476.933 219.333C473.2 225.867 468.933 233.733 467.333 236.667C465.733 239.6 462.267 245.6 459.6 250C456.933 254.4 453.467 260.4 451.867 263.333C450.267 266.267 447.333 271.067 445.333 274C439.333 282.933 434.133 290.8 432.667 293.333C432 294.667 428.533 299.867 425.2 304.933C421.867 309.867 417.467 316.4 415.6 319.333C409.333 328.8 397.733 345.2 393.467 350.533C391.2 353.333 389.333 356 389.333 356.4C389.333 357.333 337.867 426 331.733 433.333C326.933 439.067 327.867 437.867 313.6 456.4C307.067 464.8 299.867 474 297.467 476.8C293.067 482.267 277.867 501.467 255.333 530C248 539.333 237.867 552 232.933 558.267C228 564.4 221.467 572.533 218.533 576.4C204.133 595.067 201.733 598.133 198 602.8C186.4 617.467 162 649.2 143.333 674C131.733 689.333 121.733 702.133 121.2 702.4C120.533 702.667 120 703.333 120 704C120 704.667 114.4 712.533 107.6 721.6C92.5333 741.6 90.3999 744.667 63.9999 784.667C50.5333 805.067 37.7333 832.133 29.4666 858C20.3999 886.133 20.5333 927.333 29.8666 957.333C39.3333 987.6 50.9333 1010.53 70.5333 1037.33C78.1333 1047.73 96.2666 1069.33 105.867 1079.33C123.2 1097.33 160.667 1129.2 181.2 1143.33C206.133 1160.4 209.6 1162.67 210.133 1162.67C210.533 1162.67 214.4 1165.07 218.933 1168C223.333 1171.07 227.2 1173.2 227.467 1172.93C227.867 1172.67 225.733 1167.6 222.933 1161.87C216.533 1149.07 215.467 1145.73 212 1128.4C206.4 1100.27 209.467 1064.93 220 1037.2C227.2 1018.4 241.6 990 254 970.667C261.6 958.533 280.667 930.533 286 923.333C289.2 918.933 292.533 914.133 293.2 912.667C293.867 911.2 295.867 908.4 297.6 906.4C299.333 904.533 303.067 899.467 306 895.333C308.933 891.2 313.2 885.467 315.333 882.667C317.6 879.867 321.467 874.8 324 871.467C328.933 864.8 336.533 854.933 338.533 852.533C339.2 851.6 345.333 843.867 352 835.2C366.267 816.8 367.467 815.333 380.133 799.333C385.333 792.667 391.2 785.333 393.067 782.8C399.6 774.667 416 754.133 422.4 746.267C425.867 742 430.133 736.4 432 734C436.267 728.4 461.733 696.933 462.667 696C463.067 695.6 466.4 691.467 470 686.933C473.733 682.267 480.267 674.133 484.667 668.8C489.067 663.467 494.8 656.533 497.333 653.333C507.467 640.8 541.2 600.4 549.067 591.333C551.067 589.067 555.067 584.267 558 580.667C560.8 576.933 564.8 572.133 566.8 570C571.733 564.4 612.933 516.4 618.933 509.2C621.6 506 627.733 498.533 632.667 492.667C637.6 486.8 643.467 479.733 645.867 476.8C648.133 474 651.6 469.867 653.467 467.467C667.333 450.667 686.8 423.733 698 406C714.267 379.867 725.2 351.333 727.333 329.333C729.333 308.267 722.4 280.933 707.333 250.133C701.867 239.067 696.4 228.133 695.067 226C693.733 223.733 690.933 218.933 688.8 215.333C683.733 206.8 665.467 179.067 654 162.667C649.2 155.733 644.133 148.533 642.933 146.667C641.733 144.8 637.333 138.8 633.333 133.333C629.2 127.867 624.933 121.733 623.733 119.867C622.533 118 620.667 115.467 619.6 114.533C618.667 113.467 616.267 110.4 614.533 107.733C612.8 105.067 606.8 96.8 601.333 89.3333C595.867 81.8666 590.667 74.6666 589.867 73.1999C589.067 71.7332 587.2 69.1999 585.867 67.5999C584.4 65.9999 580.4 60.3999 576.933 55.3332C551.333 17.9999 545.733 10.1332 544.667 9.73322C543.867 9.46656 543.2 14.6666 543.2 22.3999Z" fill="black"/>
<path d="M712 569.333C712 570.933 713.066 573.733 714.4 575.6C716.133 578.4 716.666 581.867 716.533 590.667C716.266 618 701.733 653.333 674 694.667C664.8 708.133 655.466 721.733 653.2 724.667C651.733 726.4 636 747.733 633.333 751.467C632.266 753.067 615.333 775.6 595.866 801.467C556.666 853.867 544 870.8 537.066 880.667C534.533 884.267 525.6 896.8 517.2 908.267C494 940.133 487.466 949.333 485.333 952.533C484.266 954.267 481.466 958.267 479.066 961.467C476.666 964.667 473.333 969.333 471.733 971.733C470 974.133 466.4 979.067 463.733 982.533C460.933 986.133 458.666 989.6 458.666 990.4C458.666 991.067 457.733 992.533 456.533 993.467C455.333 994.4 452.4 998.267 449.866 1002C447.466 1005.6 443.2 1011.87 440.4 1015.73C437.6 1019.73 434.4 1024.27 433.333 1026C432.266 1027.73 424.4 1039.47 415.866 1052.27C407.466 1064.93 397.866 1079.87 394.666 1085.33C391.6 1090.8 387.6 1097.47 386.133 1100C378.533 1112.27 366.266 1140.8 362.4 1154.67C355.6 1179.6 353.866 1194.93 356 1213.33C357.6 1227.47 363.866 1252.67 368.133 1262.27C377.733 1283.87 389.6 1306.27 395.333 1314C397.2 1316.27 398.666 1318.67 398.666 1319.2C398.666 1320.27 415.6 1343.33 421.733 1350.67C442 1374.93 471.866 1405.2 495.2 1425.2C519.733 1446.13 522.4 1447.6 515.333 1435.47C508.133 1423.2 502.666 1399.73 502.666 1381.6C502.8 1348.93 514.4 1306.8 534.666 1266.67C541.866 1252.27 549.333 1238.53 552.133 1234.4C553.6 1232.53 554.666 1230.53 554.666 1230C554.666 1229.47 556.4 1226.67 558.4 1223.6C560.533 1220.53 567.6 1210 574.133 1200.13C588.8 1178.27 588.133 1179.07 598.266 1165.6C602.933 1159.6 606.666 1154 606.666 1153.47C606.666 1152.8 607.2 1152 607.733 1151.73C608.8 1151.33 613.066 1146.13 625.333 1129.87C628.133 1126.13 632.666 1120.4 635.6 1116.93C638.4 1113.6 645.2 1105.33 650.666 1098.53C660 1087.07 673.733 1070.53 680.4 1062.67C682 1060.8 685.733 1056.27 688.666 1052.67C693.2 1046.93 698.666 1040.53 722.533 1012.53C724.4 1010.27 728.4 1005.6 731.333 1002C734.266 998.4 740.533 990.933 745.333 985.333C750.133 979.733 755.866 972.8 758.266 969.867C760.666 967.067 766.266 960.133 770.933 954.533C775.6 948.933 781.466 941.6 784 938.133C786.533 934.667 790.533 929.6 792.666 926.667C799.866 917.333 805.866 908.933 807.333 906.533C808 905.2 812 899.2 816.133 893.067C827.333 876.4 839.2 850.8 844.266 832.533C848.4 817.467 848.666 815.6 848.533 794.667C848.533 773.6 848.266 772 844.266 759.333C838.133 740.4 828.4 721.067 814.933 701.2C811.466 696 808 690.667 807.2 689.2C806.4 687.733 804.4 685.067 802.933 683.333C801.466 681.6 799.066 678.533 797.733 676.4C794 670.533 762.8 629.2 758.8 624.667C756.8 622.4 754.133 619.2 752.933 617.333C751.6 615.467 748.666 611.6 746.266 608.533C744 605.467 735.866 594.8 728.266 584.8C720.666 574.8 714 566.667 713.333 566.667C712.533 566.667 712 567.867 712 569.333Z" fill="black"/>
<path d="M710.667 1207.6C710.667 1213.6 696.667 1260.13 688.667 1280.67C686.934 1285.07 683.334 1294.4 680.667 1301.33C678 1308.27 674.667 1316.4 673.467 1319.33C672.134 1322.27 668.267 1331.87 664.8 1340.67C661.334 1349.47 656.667 1360.67 654.534 1365.73C652.4 1370.67 650.667 1375.47 650.667 1376.4C650.667 1377.47 649.2 1381.87 647.334 1386.4C643.2 1396.67 637.867 1419.2 636 1434.4C634.534 1446.4 635.867 1465.33 638.8 1472.8C639.467 1474.8 640.667 1478.8 641.334 1481.87C643.334 1490.67 657.6 1519.6 664.4 1528.4C666.4 1531.07 668 1533.6 668 1534.13C668 1535.07 673.2 1542.4 680.667 1551.87C682.934 1554.67 687.067 1560.13 690 1564C692.934 1567.87 696.267 1572 697.334 1573.2C698.4 1574.4 700.667 1577.07 702.4 1579.2C707.867 1586.27 735.6 1616.13 756.8 1637.87C757.6 1638.67 774.134 1654.67 793.467 1673.33C872.534 1749.47 898.267 1776.8 913.467 1800.67C918.4 1808.4 935.067 1842.93 937.867 1851.07C939.067 1854.67 941.334 1853.73 941.334 1849.6C941.334 1842.53 946.4 1822 951.067 1810C957.2 1794.53 972.134 1762.53 978.534 1751.2C981.067 1746.67 995.467 1715.6 1000.4 1704C1018.4 1661.73 1021.47 1625.73 1010 1593.87C1002.93 1574.27 996.534 1562.53 979.334 1537.87C974.934 1531.47 971.2 1526.93 953.6 1506.67C949.467 1501.87 929.2 1481.2 908.667 1460.67C869.334 1421.2 847.2 1397.87 836.667 1384.8C834.534 1382 832 1379.07 831.334 1378.13C830.534 1377.33 827.6 1373.6 824.667 1370C821.867 1366.27 818.8 1362.67 818.134 1362C817.334 1361.2 815.2 1358.53 813.334 1356C811.6 1353.47 809.6 1350.67 809.067 1350C803.867 1343.6 781.067 1312.13 779.334 1309.2C778.667 1307.87 774 1300.93 769.2 1293.73C764.4 1286.53 756.934 1275.2 752.667 1268.67C748.534 1262 743.334 1254.13 741.2 1250.93C739.067 1247.87 737.334 1244.93 737.334 1244.4C737.334 1244 735.334 1240.93 732.934 1237.47C730.667 1234.13 727.867 1229.87 726.934 1228C722.4 1219.33 713.867 1206.13 712.4 1205.6C711.467 1205.33 710.667 1206.27 710.667 1207.6Z" fill="black"/>
</mask>
<g mask="url(#mask0_2_3)">
<rect width="1050.67" height="1908" fill="url(#paint0_linear_2_3)"/>
</g>
<defs>
<linearGradient id="paint0_linear_2_3" x1="699.5" y1="621" x2="23.6086" y2="1480.9" gradientUnits="userSpaceOnUse">
<stop stop-color="#006EFF"/>
<stop offset="1"/>
</linearGradient>
</defs>
</svg>
